<svg width="26" height="30" viewBox="0 0 26 30" fill="none" xmlns="http://www.w3.org/2000/svg">
<path d="M9.47658 30L24.8045 10.9607C24.9269 10.837 25.0099 10.6798 25.0433 10.509C25.0766 10.3382 25.0586 10.1614 24.9916 10.0007C24.9247 9.8401 24.8117 9.70286 24.667 9.60627C24.5222 9.50968 24.3521 9.45807 24.1781 9.45792H15.6201L20.6461 1.34989C20.7299 1.21579 20.7761 1.06163 20.7799 0.903538C20.7837 0.745441 20.745 0.589226 20.6677 0.45124C20.5905 0.313255 20.4775 0.198566 20.3408 0.119188C20.204 0.03981 20.0484 -0.00134133 19.8902 3.33461e-05H9.82949C9.67531 0.000150394 9.52385 0.0406669 9.3902 0.11755C9.25656 0.194434 9.14539 0.305001 9.06779 0.438227L0.121623 15.5573C0.0428176 15.6914 0.000867053 15.8439 1.32978e-05 15.9995C-0.000840458 16.155 0.0394301 16.308 0.116758 16.443C0.194087 16.5779 0.305721 16.69 0.440338 16.7679C0.574956 16.8458 0.727766 16.8868 0.883302 16.8866H7.57089L4.51236 28.8942C4.45325 29.1204 4.48633 29.3608 4.60434 29.5626C4.72234 29.7644 4.91561 29.9112 5.14172 29.9706" fill="#C8F95E"/>
</svg>
