<svg width="68" height="64" viewBox="0 0 68 64" fill="none" xmlns="http://www.w3.org/2000/svg">
<path d="M33.9951 64C52.7701 64 67.9902 49.6731 67.9902 32C67.9902 14.3269 52.7701 0 33.9951 0C15.2201 0 0 14.3269 0 32C0 49.6731 15.2201 64 33.9951 64Z" fill="#696AC3"/>
<path d="M47.6222 19.3329C45.8042 17.4506 43.2592 16.4238 40.3505 16.4238H21.0805L19.9898 24.1244H35.6239L35.2603 24.4666C30.7155 28.9158 25.6253 33.0228 19.808 36.6163L18.1719 47.5682C28.1704 41.2367 35.2603 35.5896 40.5323 30.2848L41.0777 29.7714L38.5326 47.226H46.7132L49.8037 26.6912C50.1673 23.9532 49.4401 21.3864 47.6222 19.3329Z" fill="white"/>
</svg>
